<svg xmlns="http://www.w3.org/2000/svg" viewBox="0 0 443.12 443.12"><defs><style>.cls-1{font-size:82.36px;fill:#fff;font-family:NewYork;}</style></defs><g id="Layer_2" data-name="Layer 2"><g id="Layer_1-2" data-name="Layer 1"><text class="cls-1" transform="matrix(1, 0.02, -0.02, 1, 199.38, 69.5)">K</text><text class="cls-1" transform="matrix(0.95, 0.32, -0.32, 0.95, 240.13, 67.65)">O</text><text class="cls-1" transform="translate(294.31 86.4) rotate(37.35)">R</text><text class="cls-1" transform="matrix(0.62, 0.78, -0.78, 0.62, 327.6, 111.34)">E</text><text class="cls-1" transform="translate(349.83 136.81) rotate(66.09)">A</text><text class="cls-1" transform="translate(367.23 178.44) rotate(77.14)"> </text><text class="cls-1" transform="matrix(0.13, 0.99, -0.99, 0.13, 370.63, 192.39)"> </text><text class="cls-1" transform="translate(372.7 206.54) rotate(87.94)"> </text><text class="cls-1" transform="translate(374.35 220.2) rotate(96.68)">F</text><text class="cls-1" transform="translate(372.49 252.33) rotate(111.69)">U</text><text class="cls-1" transform="translate(355.51 296.51) rotate(128.28)">R</text><text class="cls-1" transform="matrix(-0.82, 0.57, -0.57, -0.82, 331.92, 329.44)">N</text><text class="cls-1" transform="translate(288.53 357.84) rotate(156.97)">I</text><text class="cls-1" transform="matrix(-0.98, 0.22, -0.22, -0.98, 279.05, 364.12)">T</text><text class="cls-1" transform="matrix(-1, -0.08, 0.08, -1, 236.83, 374.77)">U</text><text class="cls-1" transform="translate(189.61 371.72) rotate(-158.96)">R</text><text class="cls-1" transform="translate(150.7 357.15) rotate(-144.66)">E</text><text class="cls-1" transform="translate(118.62 333.23) rotate(-133.76)"> </text><text class="cls-1" transform="matrix(-0.5, -0.87, 0.87, -0.5, 107.04, 326.48)">M</text><text class="cls-1" transform="translate(76.87 274.43) rotate(-99.86)">U</text><text class="cls-1" transform="translate(68.37 230.16) rotate(-84.33)">S</text><text class="cls-1" transform="translate(72.04 189.1) rotate(-70.04)">E</text><text class="cls-1" transform="translate(82.13 156.12) rotate(-54.66)">U</text><text class="cls-1" transform="matrix(0.82, -0.57, 0.57, 0.82, 107.37, 116.3)">M</text></g></g></svg>